<svg width="24" height="24" viewBox="0 0 24 24" fill="none" xmlns="http://www.w3.org/2000/svg">
<path fill-rule="evenodd" clip-rule="evenodd" d="M12.0009 4.19995C15.6186 4.19995 19.414 7.13335 21.5869 11.1531C21.8719 11.6812 21.8719 12.3197 21.5866 12.8485C19.4137 16.8669 15.6184 19.8 12.0009 19.8C8.38316 19.8 4.58777 16.8665 2.41481 12.8468C2.1299 12.3187 2.1299 11.6802 2.41517 11.1514C4.58802 7.13303 8.3834 4.19995 12.0009 4.19995ZM12.0009 5.79995C9.05802 5.79995 5.74217 8.36246 3.82294 11.9118C3.79386 11.9657 3.79386 12.0332 3.82263 12.0865C5.74203 15.6372 9.05785 18.2 12.0009 18.2C14.9437 18.2 18.2596 15.6374 20.1788 12.0881C20.2079 12.0342 20.2079 11.9667 20.1791 11.9134C18.2597 8.3627 14.9439 5.79995 12.0009 5.79995ZM9.31385 9.31295C10.7978 7.82896 13.2039 7.82896 14.6879 9.31295C16.1719 10.7969 16.1719 13.203 14.6879 14.687C13.2039 16.1709 10.7978 16.1709 9.31385 14.687C7.82986 13.203 7.82986 10.7969 9.31385 9.31295ZM13.5565 10.4443C12.6973 9.58517 11.3044 9.58517 10.4452 10.4443C9.58607 11.3035 9.58607 12.6964 10.4452 13.5556C11.3044 14.4147 12.6973 14.4147 13.5565 13.5556C14.4156 12.6964 14.4156 11.3035 13.5565 10.4443Z" fill="#555F83"/>
</svg>
